# xmcd CD database file
#
# Track frame offsets:
#	150
#	18505
#	35715
#	54972
#	71925
#	90890
#	107925
#	114100
#	136345
#	157647
#	193272
#
# Disc length: 2827 seconds
#
# Revision: 0
# Processed by: cddbd v1.5PL3 Copyright (c) Steve Scherf et al.
# Submitted via: CDex 1.51
#
DISCID=8a0b090b
DTITLE=Sparta Locals - Second Fanfare
DYEAR=1900
DGENRE=Rock
TTITLE0=バイオレンスサマー
TTITLE1=黄金WAVE
TTITLE2=赤い砂
TTITLE3=ほたる
TTITLE4=スロウカーヴ
TTITLE5=POGO（More Tight Version）
TTITLE6=雷魚
TTITLE7=私のりんご
TTITLE8=ギャラクシー空港
TTITLE9=リザーバー
TTITLE10=サイレント
EXTD=
EXTT0=
EXTT1=
EXTT2=
EXTT3=
EXTT4=
EXTT5=
EXTT6=
EXTT7=
EXTT8=
EXTT9=
EXTT10=
PLAYORDER=
